<svg width="46" height="40" viewBox="0 0 46 40" fill="none" xmlns="http://www.w3.org/2000/svg">
<path d="M45.7923 27.0811C45.7923 34.0008 40.1828 39.6104 33.263 39.6104L14.4692 39.6103C12.547 39.6103 10.9888 38.0521 10.9888 36.13L10.9888 12.4636C10.9888 8.61935 14.1052 5.50295 17.9495 5.50295L42.312 5.50295C44.2341 5.50295 45.7923 7.06115 45.7923 8.9833L45.7923 27.0811Z" fill="#E8F5E9"/>
<path d="M19.2834 13.8631C19.0662 13.8631 18.8896 13.6869 18.8896 13.4694V12.8002C18.8896 12.5831 19.0659 12.4065 19.2834 12.4065C19.5006 12.4065 19.6771 12.5828 19.6771 12.8002V13.4694C19.6771 13.6869 19.5006 13.8631 19.2834 13.8631Z" fill="#103E13"/>
<path d="M17.628 13.8631C17.4108 13.8631 17.2343 13.6869 17.2343 13.4694V12.8002C17.2343 12.5831 17.4105 12.4065 17.628 12.4065C17.8452 12.4065 18.0217 12.5828 18.0217 12.8002V13.4694C18.0215 13.6869 17.8455 13.8631 17.628 13.8631Z" fill="#103E13"/>
<path d="M15.9727 13.8631C15.7555 13.8631 15.579 13.6869 15.579 13.4694V12.8002C15.579 12.5831 15.7553 12.4065 15.9727 12.4065C16.1899 12.4065 16.3665 12.5828 16.3665 12.8002V13.4694C16.3665 13.6869 16.1902 13.8631 15.9727 13.8631Z" fill="#103E13"/>
<path d="M19.2834 16.5997C19.0662 16.5997 18.8896 16.4234 18.8896 16.2059V15.5371C18.8896 15.3199 19.0659 15.1433 19.2834 15.1433C19.5006 15.1433 19.6771 15.3196 19.6771 15.5371V16.2059C19.6771 16.4234 19.5006 16.5997 19.2834 16.5997Z" fill="#103E13"/>
<path d="M17.628 16.5997C17.4108 16.5997 17.2343 16.4234 17.2343 16.2059V15.5371C17.2343 15.3199 17.4105 15.1433 17.628 15.1433C17.8452 15.1433 18.0217 15.3196 18.0217 15.5371V16.2059C18.0215 16.4234 17.8455 16.5997 17.628 16.5997Z" fill="#103E13"/>
<path d="M15.9727 16.5997C15.7555 16.5997 15.579 16.4234 15.579 16.2059V15.5371C15.579 15.3199 15.7553 15.1433 15.9727 15.1433C16.1899 15.1433 16.3665 15.3196 16.3665 15.5371V16.2059C16.3665 16.4234 16.1902 16.5997 15.9727 16.5997Z" fill="#103E13"/>
<path d="M19.2834 19.336C19.0662 19.336 18.8896 19.1598 18.8896 18.9423V18.2731C18.8896 18.056 19.0659 17.8794 19.2834 17.8794C19.5006 17.8794 19.6771 18.0557 19.6771 18.2731V18.9423C19.6771 19.1598 19.5006 19.336 19.2834 19.336Z" fill="#103E13"/>
<path d="M17.628 19.336C17.4108 19.336 17.2343 19.1598 17.2343 18.9423V18.2731C17.2343 18.056 17.4105 17.8794 17.628 17.8794C17.8452 17.8794 18.0217 18.0557 18.0217 18.2731V18.9423C18.0215 19.1598 17.8455 19.336 17.628 19.336Z" fill="#103E13"/>
<path d="M15.9727 19.336C15.7555 19.336 15.579 19.1598 15.579 18.9423V18.2731C15.579 18.056 15.7553 17.8794 15.9727 17.8794C16.1899 17.8794 16.3665 18.0557 16.3665 18.2731V18.9423C16.3665 19.1598 16.1902 19.336 15.9727 19.336Z" fill="#103E13"/>
<path d="M19.2834 22.0719C19.0662 22.0719 18.8896 21.8956 18.8896 21.6781V21.009C18.8896 20.7918 19.0659 20.6152 19.2834 20.6152C19.5006 20.6152 19.6771 20.7915 19.6771 21.009V21.6781C19.6771 21.8956 19.5006 22.0719 19.2834 22.0719Z" fill="#103E13"/>
<path d="M17.628 22.0719C17.4108 22.0719 17.2343 21.8956 17.2343 21.6781V21.009C17.2343 20.7918 17.4105 20.6152 17.628 20.6152C17.8452 20.6152 18.0217 20.7915 18.0217 21.009V21.6781C18.0215 21.8956 17.8455 22.0719 17.628 22.0719Z" fill="#103E13"/>
<path d="M15.9727 22.0719C15.7555 22.0719 15.579 21.8956 15.579 21.6781V21.009C15.579 20.7918 15.7553 20.6152 15.9727 20.6152C16.1899 20.6152 16.3665 20.7915 16.3665 21.009V21.6781C16.3665 21.8956 16.1902 22.0719 15.9727 22.0719Z" fill="#103E13"/>
<path d="M19.2834 24.8084C19.0662 24.8084 18.8896 24.6321 18.8896 24.4147V23.7458C18.8896 23.5286 19.0659 23.3521 19.2834 23.3521C19.5006 23.3521 19.6771 23.5283 19.6771 23.7458V24.4147C19.6771 24.6319 19.5006 24.8084 19.2834 24.8084Z" fill="#103E13"/>
<path d="M17.628 24.8084C17.4108 24.8084 17.2343 24.6321 17.2343 24.4147V23.7458C17.2343 23.5286 17.4105 23.3521 17.628 23.3521C17.8452 23.3521 18.0217 23.5283 18.0217 23.7458V24.4147C18.0215 24.6319 17.8455 24.8084 17.628 24.8084Z" fill="#103E13"/>
<path d="M15.9727 24.8084C15.7555 24.8084 15.579 24.6321 15.579 24.4147L15.5793 23.7458C15.5793 23.5286 15.7555 23.3521 15.973 23.3521C16.1902 23.3521 16.3668 23.5283 16.3668 23.7458V24.4147C16.3665 24.6319 16.1902 24.8084 15.9727 24.8084Z" fill="#103E13"/>
<path d="M4.72451 27.5315C4.72451 27.7487 4.90079 27.9252 5.11826 27.9252H29.0963C29.3135 27.9252 29.49 27.749 29.49 27.5315C29.49 27.3143 29.3138 27.1377 29.0963 27.1377H28.3684V15.8327C28.3684 15.6155 28.1921 15.4389 27.9747 15.4389L21.546 15.4392V7.28883C21.546 7.15099 21.474 7.02359 21.3565 6.95219C21.2393 6.88053 21.0926 6.87614 20.9707 6.93956L13.6618 10.745C13.5313 10.8128 13.4501 10.9473 13.4501 11.0942V18.2134H6.37657C6.15938 18.2134 5.98282 18.3897 5.98282 18.6072V27.1378H5.11738C4.90019 27.1375 4.72418 27.3138 4.72418 27.5313L4.72451 27.5315ZM21.5461 21.4027H27.5813V27.1381L21.5461 27.1378V21.4027ZM21.5461 18.6665H27.5813V20.6155L21.5461 20.6152V18.6665ZM21.5461 16.2263H27.5813V17.8795H21.5461V16.2263ZM14.2371 11.3333L20.7583 7.93786V27.1374H14.2371V11.3333ZM8.71675 23.9929C8.71675 23.1758 9.3642 22.5107 10.1602 22.5107C10.9562 22.5107 11.6039 23.1755 11.6039 23.9929V27.1379H8.71675V23.9929ZM6.77029 19.0008H13.4499V27.1378H12.3914V23.9928C12.3914 22.7415 11.3909 21.7234 10.1602 21.7234C8.93009 21.7234 7.92955 22.7412 7.92955 23.9928V27.1378H6.77029V19.0008Z" fill="#103E13"/>
</svg>
