<svg width="46" height="40" viewBox="0 0 46 40" fill="none" xmlns="http://www.w3.org/2000/svg">
<path d="M45.9187 27.0811C45.9187 34.0008 40.3092 39.6104 33.3894 39.6104L14.5956 39.6103C12.6734 39.6103 11.1152 38.0521 11.1152 36.13L11.1152 12.4636C11.1152 8.61935 14.2316 5.50295 18.0759 5.50295L42.4384 5.50295C44.3605 5.50295 45.9187 7.06115 45.9187 8.9833L45.9187 27.0811Z" fill="#E8F5E9"/>
<path d="M17.3728 7.59106C14.887 7.59106 12.8633 9.63325 12.8633 12.1297C12.8633 13.7089 13.6743 15.1034 14.8988 15.9162C13.4198 16.4107 12.14 17.335 11.2013 18.5442C10.6824 18.145 10.1025 17.824 9.47735 17.5939C10.4253 16.8902 11.0448 15.7597 11.0448 14.4891C11.0448 12.3718 9.33239 10.6386 7.22795 10.6386C5.12352 10.6386 3.41113 12.3718 3.41113 14.4891C3.41113 15.7604 4.03112 16.8914 4.97987 17.5952C2.46805 18.5221 0.674133 20.9488 0.674133 23.8048V25.811C0.67439 25.9639 0.735566 26.1104 0.844036 26.2181C0.952505 26.3261 1.09928 26.3862 1.25222 26.3857H10.054C10.0753 26.388 10.0967 26.3893 10.118 26.3891H24.6282C24.6495 26.3893 24.6711 26.388 24.6922 26.3857H33.4946C33.811 26.3844 34.0673 26.1277 34.068 25.811V23.8048C34.068 20.9488 32.2772 18.5221 29.7667 17.5949C30.7155 16.8914 31.3355 15.7601 31.3355 14.4888C31.3355 12.3716 29.6231 10.6383 27.5186 10.6383C25.4143 10.6383 23.7018 12.3716 23.7018 14.4888C23.7018 15.7594 24.3215 16.8901 25.2695 17.5937C24.6431 17.8242 24.0629 18.1463 23.5432 18.5465C22.605 17.3366 21.327 16.411 19.848 15.9162C21.0723 15.1034 21.8836 13.7089 21.8836 12.1297C21.8836 9.63325 19.8588 7.59106 17.373 7.59106H17.3728ZM17.3728 8.74261C19.232 8.74261 20.7308 10.2515 20.7308 12.1297C20.7308 13.9932 19.2554 15.4874 17.4168 15.5113C17.4021 15.5113 17.3877 15.5093 17.3728 15.5093C17.3579 15.5093 17.3438 15.5113 17.3289 15.5113C15.4903 15.4877 14.0158 13.9933 14.0158 12.1297C14.0158 10.2512 15.5134 8.74261 17.3726 8.74261H17.3728ZM7.22802 11.7901C8.70319 11.7901 9.89329 12.9873 9.89329 14.489C9.89329 15.9806 8.71858 17.1728 7.2573 17.189C7.24753 17.189 7.23802 17.188 7.228 17.188C7.21823 17.188 7.20872 17.189 7.1987 17.189C5.73742 17.1728 4.5627 15.9804 4.5627 14.489C4.5627 12.9874 5.75281 11.7901 7.22798 11.7901H7.22802ZM27.5183 11.7901C28.9935 11.7901 30.1836 12.9873 30.1836 14.489C30.1836 15.9806 29.0089 17.1728 27.5476 17.189C27.5378 17.189 27.5283 17.188 27.5183 17.188C27.5085 17.188 27.499 17.189 27.489 17.189C26.0277 17.1728 24.853 15.9804 24.853 14.489C24.853 12.9874 26.0431 11.7901 27.5182 11.7901H27.5183ZM17.3287 16.6628C17.3434 16.6631 17.3578 16.6649 17.3727 16.6649C17.3873 16.6649 17.4017 16.6628 17.4166 16.6628C21.1039 16.6865 24.0548 19.6628 24.0548 23.3885L24.0546 25.2372H10.6914V23.3885C10.6914 19.6624 13.6414 16.6865 17.3282 16.6628H17.3287ZM7.18393 18.3418C7.19858 18.3421 7.21298 18.3439 7.22789 18.3439C7.24279 18.3439 7.25693 18.3418 7.27184 18.3418C8.519 18.3519 9.65719 18.7819 10.5635 19.5014C9.91497 20.6488 9.53993 21.9733 9.53993 23.3889V25.2331H1.82522V23.8047C1.82522 20.7767 4.20596 18.3655 7.1838 18.3416L7.18393 18.3418ZM27.4742 18.3418C27.4891 18.3421 27.5032 18.3439 27.5182 18.3439C27.5331 18.3439 27.5472 18.3418 27.5621 18.3418C30.5399 18.3655 32.9207 20.7771 32.9207 23.805V25.2331H25.202L25.2018 23.3889C25.2018 21.9741 24.8278 20.6506 24.1805 19.5034C25.0871 18.7829 26.2261 18.3518 27.4743 18.3418H27.4742Z" fill="#103E13"/>
</svg>
