<svg width="46" height="40" viewBox="0 0 46 40" fill="none" xmlns="http://www.w3.org/2000/svg">
<path d="M45.6658 27.0811C45.6658 34.0008 40.0562 39.6104 33.1365 39.6104L14.3426 39.6103C12.4205 39.6103 10.8623 38.0521 10.8623 36.13L10.8623 12.4636C10.8623 8.61935 13.9787 5.50295 17.823 5.50295L42.1854 5.50295C44.1076 5.50295 45.6658 7.06115 45.6658 8.9833L45.6658 27.0811Z" fill="#E8F5E9"/>
<path d="M20.1282 17.0887C19.9605 17.0887 19.8049 17.0426 19.6667 16.9685V16.9704C19.6667 17.2341 19.5642 17.4818 19.3782 17.6672C19.1923 17.8532 18.9448 17.9557 18.6814 17.9557C18.5113 17.9557 18.3537 17.9085 18.214 17.8324C18.1999 18.0736 18.1035 18.2991 17.9315 18.4713C17.7455 18.6573 17.498 18.7598 17.2345 18.7598C16.7108 18.7598 16.2856 18.3481 16.2549 17.8322C16.0929 17.9198 15.9097 17.9657 15.7208 17.9536C15.2057 17.9198 14.8023 17.4747 14.8023 16.9401V12.5084L14.2977 13.3827C14.1055 13.7171 13.7457 13.9247 13.3583 13.9247C13.1696 13.9247 12.9831 13.8751 12.818 13.7805C12.6123 13.6613 12.4652 13.4699 12.404 13.241C12.3425 13.0119 12.3744 12.7723 12.4932 12.5669C12.4934 12.5669 14.1443 9.70805 14.245 9.53244C14.257 9.50604 14.2911 9.42945 14.3201 9.36418C14.3479 9.30187 14.3716 9.23791 14.3944 9.17362C14.8923 7.76806 16.1251 6.89496 17.6118 6.89496C19.5425 6.89496 21.1132 8.59818 21.1132 10.6917L21.1134 16.1032C21.1134 16.3666 21.011 16.6141 20.8252 16.8002C20.6393 16.9862 20.3918 17.0887 20.1281 17.0887L20.1282 17.0887ZM17.6118 7.41851C16.3343 7.41851 15.3161 8.14009 14.8879 9.34872C14.8605 9.42546 14.832 9.50221 14.7987 9.57699C14.7021 9.79363 14.7021 9.79363 14.6749 9.82478L14.6713 9.82167C14.5365 10.076 14.136 10.7695 12.9466 12.829C12.8977 12.9134 12.8847 13.0115 12.9097 13.1053C12.9349 13.1991 12.9954 13.2781 13.0792 13.3265C13.3393 13.4759 13.6955 13.3795 13.8438 13.1212L14.8374 11.4009C14.8968 11.2984 15.0168 11.2481 15.1319 11.2792C15.2464 11.3099 15.3259 11.4137 15.3259 11.5321V16.9402C15.3259 17.1954 15.5185 17.4156 15.7551 17.4312C15.8916 17.4384 16.0188 17.3927 16.1144 17.2972C16.2013 17.2103 16.2492 17.0945 16.2492 16.9707V13.4337C16.2492 13.2891 16.3665 13.1718 16.5111 13.1718C16.6558 13.1718 16.773 13.2889 16.773 13.4337L16.7729 17.7747C16.7729 18.0292 16.98 18.2363 17.2345 18.2363C17.3581 18.2363 17.4742 18.1884 17.5613 18.1015C17.6482 18.0144 17.6961 17.8983 17.6961 17.7747V13.4337C17.6961 13.2891 17.8132 13.1718 17.958 13.1718C18.1027 13.1718 18.2199 13.2889 18.2199 13.4337L18.2198 16.93V16.9707C18.2198 17.2251 18.4269 17.4322 18.6816 17.4322C18.8051 17.4322 18.9208 17.3841 19.0084 17.2969C19.0953 17.2101 19.1432 17.0943 19.1432 16.9705V13.4335C19.1432 13.2889 19.2603 13.1716 19.4051 13.1716C19.5497 13.1716 19.667 13.2887 19.667 13.4335L19.6667 16.1034C19.6667 16.358 19.8738 16.5652 20.1281 16.5652C20.2519 16.5652 20.3677 16.5171 20.4546 16.4304C20.5419 16.3431 20.5896 16.227 20.5896 16.1034L20.5898 10.6919C20.5898 8.88714 19.2539 7.41856 17.6118 7.41856L17.6118 7.41851Z" fill="#103E13"/>
<path d="M9.83847 20.8498L13.6388 18.57C14.097 18.2948 14.6866 18.4117 14.9804 18.8363C15.0877 18.991 15.1425 19.1712 15.151 19.3547C15.2927 19.2807 15.4468 19.2406 15.6038 19.2406C15.6841 19.2406 15.7648 19.2506 15.8445 19.2704C16.0998 19.3342 16.315 19.4938 16.4503 19.7194C16.5858 19.9454 16.6253 20.2102 16.5615 20.4653C16.5026 20.7013 16.3591 20.8999 16.1595 21.0361C16.2991 21.1185 16.4195 21.2308 16.5051 21.3738C16.6405 21.5998 16.6801 21.8645 16.6164 22.1198C16.5526 22.3748 16.3931 22.59 16.1671 22.7256L16.1658 22.7264C16.3029 22.8086 16.4211 22.9198 16.5057 23.0607C16.6414 23.2866 16.6809 23.5515 16.6171 23.8068C16.5531 24.062 16.3936 24.2771 16.1679 24.4126L11.5276 27.1964C10.6616 27.7158 9.66041 27.895 8.70892 27.7007C7.74892 27.5045 6.95386 26.9527 6.47044 26.1468C5.7054 24.8718 5.82005 23.3654 6.76907 22.2156C6.81253 22.1631 6.85533 22.1097 6.8942 22.0542C6.93536 21.9957 6.98341 21.9268 6.99981 21.9032C7.09804 21.7277 8.70092 18.8398 8.70075 18.8401C8.86262 18.5481 9.166 18.3827 9.47889 18.3829C9.62485 18.3829 9.77293 18.4188 9.90954 18.4946C10.0745 18.5868 10.2131 18.7211 10.31 18.8829C10.5093 19.215 10.5163 19.6306 10.3287 19.9669L9.83847 20.8498ZM9.86126 19.1522C9.81042 19.0674 9.74056 18.9998 9.65512 18.9519C9.4785 18.8542 9.25613 18.9178 9.15889 19.0938C8.01194 21.1601 7.62096 21.8643 7.47008 22.1148L7.47352 22.1157C7.4609 22.1576 7.4609 22.1576 7.32282 22.3549C7.27591 22.4217 7.22491 22.4858 7.17293 22.5489C6.35688 23.5377 6.26213 24.7819 6.91923 25.8775C7.32626 26.5561 7.99897 27.0213 8.8135 27.1876C9.6369 27.3551 10.5048 27.1993 11.258 26.7473L15.8987 23.9634C16.0046 23.8999 16.0794 23.7991 16.1093 23.6795C16.1391 23.5601 16.1206 23.436 16.0569 23.3301C15.9261 23.1119 15.6419 23.0403 15.4238 23.1716L13.1344 24.5451C13.0105 24.6195 12.8494 24.5795 12.7751 24.4554C12.7007 24.3314 12.7409 24.1705 12.8648 24.0961L15.1543 22.7226L15.8979 22.2766C16.0038 22.2129 16.0788 22.1121 16.1086 21.9929C16.1385 21.8733 16.1199 21.749 16.0563 21.6432C15.9253 21.425 15.6411 21.354 15.4231 21.4848L12.3901 23.3043C12.2658 23.3789 12.1052 23.3386 12.0308 23.2146C11.9563 23.0906 11.9967 22.9298 12.1205 22.8553L15.8429 20.6222C15.9489 20.5586 16.0237 20.4579 16.0535 20.3384C16.0834 20.219 16.0648 20.0948 16.0014 19.9889C15.9379 19.8831 15.837 19.8083 15.7175 19.7785C15.5973 19.7487 15.4736 19.7672 15.368 19.8305L14.6789 20.2439C14.6788 20.2439 14.6788 20.2441 14.6786 20.2441H14.6784L11.6456 22.0636C11.5213 22.1384 11.3605 22.098 11.2863 21.9739C11.2118 21.8499 11.2521 21.689 11.376 21.6146L14.409 19.7951C14.5149 19.7314 14.5899 19.6306 14.6197 19.5114C14.6525 19.3805 14.6276 19.2467 14.5499 19.1345C14.4151 18.9395 14.1268 18.8877 13.9082 19.0191L9.27083 21.801C9.16932 21.8617 9.03927 21.847 8.95416 21.7648C8.86889 21.6825 8.8497 21.5531 8.90709 21.4496L9.87138 19.7123C9.96814 19.5386 9.96436 19.3241 9.86121 19.1522L9.86126 19.1522Z" fill="#103E13"/>
<path d="M27.9983 26.1467C27.515 26.9528 26.7201 27.5044 25.76 27.7006C24.8083 27.8946 23.8075 27.7157 22.9412 27.1963L18.3005 24.4124C18.0747 24.2769 17.915 24.0618 17.851 23.8062C17.7876 23.5512 17.8273 23.2864 17.9626 23.0607C18.047 22.9197 18.1654 22.8085 18.3027 22.7263L18.3014 22.7255C18.0755 22.5901 17.9158 22.3749 17.8522 22.1197C17.7882 21.8645 17.8279 21.5995 17.9634 21.3736C18.0506 21.2284 18.1702 21.115 18.3066 21.0344C18.1085 20.8982 17.9658 20.7002 17.9071 20.4654C17.8432 20.21 17.8829 19.9452 18.0183 19.7195C18.1536 19.4937 18.3689 19.3341 18.6241 19.2703C18.7038 19.2503 18.7847 19.2405 18.8647 19.2405C19.0218 19.2407 19.176 19.2805 19.3176 19.3546C19.3263 19.1711 19.3809 18.9909 19.4882 18.8362C19.7822 18.412 20.3713 18.2946 20.8302 18.5699L24.6304 20.8494L24.1405 19.9671C23.9526 19.6303 23.9595 19.2147 24.1587 18.8825C24.2558 18.7208 24.3945 18.5865 24.5603 18.4935C24.6966 18.4181 24.8442 18.3823 24.9898 18.3823C25.3026 18.3825 25.6063 18.5474 25.768 18.8395C26.3314 19.8548 27.3948 21.7696 27.4695 21.9033C27.4854 21.9264 27.5335 21.9953 27.5747 22.0538C27.6138 22.1094 27.6562 22.1625 27.6999 22.2153C28.6488 23.3656 28.7633 24.8718 27.9983 26.1467L27.9983 26.1467ZM27.2959 22.5491C27.2438 22.4859 27.1926 22.4215 27.146 22.3551C27.0043 22.154 27.0007 22.1488 26.9901 22.0961C26.8244 21.8221 26.4204 21.0947 25.3097 19.0936C25.2122 18.9179 24.9909 18.8538 24.8146 18.9512C24.7278 18.9998 24.6581 19.0675 24.6073 19.1523C24.5043 19.324 24.5004 19.5385 24.5976 19.7127L25.5616 21.4495C25.6191 21.5532 25.5999 21.6824 25.5148 21.7647C25.4299 21.8472 25.3 21.8616 25.198 21.8009L20.5606 19.019C20.342 18.8879 20.0539 18.9393 19.9188 19.1344C19.841 19.2466 19.8163 19.3804 19.8487 19.5111C19.8786 19.6305 19.9535 19.7312 20.0596 19.7948C20.06 19.795 20.0601 19.7953 20.0605 19.7955L23.0925 21.6145C23.2165 21.6889 23.2567 21.8496 23.1822 21.9738C23.1078 22.0976 22.9472 22.1381 22.8229 22.0635L19.1005 19.8304C18.9948 19.7671 18.8705 19.7484 18.7512 19.7784C18.6314 19.8083 18.5308 19.883 18.4673 19.9891C18.4037 20.0949 18.3853 20.2191 18.4148 20.3385C18.4447 20.4578 18.5196 20.5587 18.6255 20.6223L19.3499 21.0568L22.3478 22.8554C22.4718 22.9299 22.512 23.0906 22.4375 23.2147C22.3631 23.3386 22.2025 23.3789 22.0782 23.3044L19.0455 21.4849C18.8274 21.3537 18.5434 21.4249 18.4122 21.6434C18.3486 21.7493 18.3302 21.8734 18.3597 21.9928C18.3896 22.1122 18.4645 22.2129 18.5706 22.2767L19.3141 22.7228L21.6033 24.0962C21.7273 24.1706 21.7675 24.3314 21.693 24.4555C21.6186 24.5793 21.458 24.62 21.3337 24.5452L19.0445 23.1718C18.9389 23.1085 18.8151 23.0898 18.6951 23.1198C18.5757 23.1496 18.4747 23.2244 18.4112 23.3302C18.3477 23.4361 18.3292 23.5604 18.3587 23.6796C18.3886 23.799 18.4635 23.8997 18.5696 23.9635L23.2103 26.7474C23.9634 27.1992 24.8319 27.3557 25.6548 27.1877C26.4692 27.0215 27.1419 26.5562 27.5489 25.8776C28.2067 24.7818 28.1121 23.5374 27.2962 22.5491L27.2959 22.5491Z" fill="#103E13"/>
</svg>
