<svg width="34" height="34" viewBox="0 0 34 34" fill="none" xmlns="http://www.w3.org/2000/svg">
<path d="M4.13263 11.634V11.982H4.48066H29.5392H29.8872V11.634V10.0679C29.8872 9.28327 29.5755 8.53081 29.0207 7.97602C28.4659 7.42123 27.7135 7.10956 26.9289 7.10956H7.09093C6.30634 7.10956 5.55388 7.42123 4.99909 7.97602C4.44431 8.53081 4.13263 9.28327 4.13263 10.0679V11.634ZM29.8872 13.7222V13.3742H29.5392H4.48066H4.13263V13.7222V23.6412C4.13263 24.4258 4.44431 25.1783 4.99909 25.733C5.55388 26.2878 6.30634 26.5995 7.09093 26.5995H26.9289C27.7135 26.5995 28.4659 26.2878 29.0207 25.733C29.5755 25.1783 29.8872 24.4258 29.8872 23.6412V13.7222ZM2.74049 10.0679C2.74049 8.91405 3.19884 7.8075 4.0147 6.99163C4.83057 6.17577 5.93712 5.71742 7.09093 5.71742H26.9289C28.0827 5.71742 29.1893 6.17577 30.0051 6.99163C30.821 7.8075 31.2793 8.91405 31.2793 10.0679V23.6412C31.2793 24.795 30.821 25.9016 30.0051 26.7174C29.1893 27.5333 28.0827 27.9916 26.9289 27.9916H7.09093C5.93712 27.9916 4.83057 27.5333 4.0147 26.7174C3.19884 25.9016 2.74049 24.795 2.74049 23.6412V10.0679ZM22.2304 20.3349H25.3627C25.5474 20.3349 25.7244 20.4082 25.8549 20.5388C25.9855 20.6693 26.0588 20.8463 26.0588 21.0309C26.0588 21.2156 25.9855 21.3926 25.8549 21.5231C25.7244 21.6537 25.5474 21.727 25.3627 21.727H22.2304C22.0458 21.727 21.8688 21.6537 21.7382 21.5231C21.6077 21.3926 21.5344 21.2156 21.5344 21.0309C21.5344 20.8463 21.6077 20.6693 21.7382 20.5388C21.8688 20.4082 22.0458 20.3349 22.2304 20.3349Z" fill="#4CAF4F" stroke="#4CAF4F" stroke-width="0.696069"/>
</svg>
