<svg width="34" height="34" viewBox="0 0 34 34" fill="none" xmlns="http://www.w3.org/2000/svg">
<g clip-path="url(#clip0_211_2056)">
<path d="M31.7851 9.70227C31.7851 9.7258 31.7851 9.75522 31.7789 9.77288C31.7483 10.0024 31.7483 10.2318 31.7666 10.4672C31.7789 10.5261 31.7912 10.5849 31.8403 10.632C31.9199 10.7202 32.0425 10.7026 32.0916 10.5967C32.1161 10.5437 32.1161 10.4907 32.1038 10.4378C32.0425 10.2142 32.0303 9.97883 32.0242 9.74934C32.0242 9.73757 32.0242 9.71992 32.0242 9.70227C32.0916 9.69638 32.1529 9.6905 32.2081 9.6905C32.251 9.68461 32.2878 9.67873 32.3185 9.66107C32.4104 9.614 32.4104 9.51397 32.3123 9.4669C32.2755 9.44925 32.2265 9.44336 32.1836 9.44336C32.0303 9.44925 31.877 9.44925 31.7237 9.44925C31.6686 9.44925 31.6134 9.45513 31.5582 9.46101C31.5275 9.4669 31.4908 9.4669 31.4663 9.48455C31.4233 9.5022 31.3988 9.53162 31.3988 9.57281C31.405 9.614 31.4233 9.63754 31.4663 9.65519C31.4908 9.67285 31.5214 9.67873 31.5521 9.67873C31.6256 9.68461 31.7054 9.69638 31.7851 9.70227ZM33.471 9.97294C33.471 9.97883 33.4771 9.98471 33.4771 9.98471C33.5017 10.1436 33.5262 10.2966 33.5446 10.4496C33.5508 10.5025 33.5569 10.5496 33.5937 10.5908C33.6733 10.6908 33.796 10.679 33.8511 10.5731C33.8757 10.5202 33.8818 10.4672 33.8695 10.4084C33.8328 10.2318 33.8143 10.0553 33.7776 9.88468C33.753 9.77876 33.7224 9.67873 33.6918 9.58458C33.6733 9.52574 33.6304 9.48455 33.5569 9.47867C33.4833 9.4669 33.4281 9.5022 33.3975 9.55516C33.3607 9.60223 33.33 9.64931 33.3055 9.70227C33.2626 9.79641 33.2258 9.89056 33.1768 9.97883C33.1706 10.0024 33.1645 10.02 33.1522 10.0377C33.1461 10.0259 33.14 10.02 33.14 10.02C33.0603 9.87291 32.9867 9.7258 32.907 9.58458C32.8947 9.57281 32.8886 9.56104 32.8825 9.54928C32.8457 9.49632 32.8028 9.4669 32.7353 9.4669C32.674 9.47278 32.625 9.50809 32.5943 9.56104C32.5821 9.58458 32.5821 9.60223 32.5759 9.62577C32.5514 9.81407 32.5207 10.0024 32.4962 10.1907C32.484 10.2966 32.4778 10.4025 32.4778 10.5084C32.4717 10.5319 32.4778 10.5614 32.4901 10.5849C32.5024 10.632 32.5391 10.6614 32.5882 10.6673C32.6495 10.6732 32.6924 10.6555 32.7108 10.6084C32.7292 10.5731 32.7353 10.5437 32.7415 10.5143C32.766 10.4084 32.7844 10.3083 32.8028 10.2083C32.815 10.1495 32.8212 10.1024 32.8396 10.0377C32.8518 10.0612 32.8641 10.0789 32.8763 10.0965C32.9315 10.1671 32.9867 10.2377 33.0541 10.2966C33.1216 10.3436 33.1768 10.3378 33.2319 10.2848C33.2442 10.273 33.2503 10.2672 33.2626 10.2554C33.3178 10.173 33.3852 10.0906 33.4404 10.0082C33.4527 9.99647 33.4588 9.98471 33.471 9.97294Z" fill="#3A3B7B"/>
<path d="M19.3448 9.81793C19.3022 9.92976 19.294 10.0103 19.3137 10.0773C19.3355 10.1683 19.3919 10.1982 19.4684 10.175C20.1885 10.0041 21.7676 10.4892 22.3522 10.6244C22.4901 10.6528 22.6023 10.482 22.5082 10.3288C22.3709 10.1805 20.7925 9.54547 20.1903 9.51084C19.9542 9.49804 19.5322 9.43994 19.3448 9.81793Z" fill="#3A3B7B"/>
<path d="M25.5161 7.7623C25.5928 7.80481 25.6358 7.84537 25.6569 7.89068C25.6885 7.95012 25.6718 7.99125 25.6188 8.01223C25.1428 8.2352 24.5094 9.19514 24.2537 9.52622C24.1917 9.60238 24.0488 9.55812 24.0272 9.43288C24.0316 9.29126 24.5931 8.24951 24.9065 7.96578C25.0296 7.855 25.2331 7.63763 25.5161 7.7623Z" fill="#3A3B7B"/>
<path d="M21.7253 7.28967C21.8175 7.22297 21.9134 7.1996 21.9623 7.24295C22.6805 7.83245 23.0613 8.76597 23.2972 9.62059C23.306 9.6405 23.3066 9.66907 23.2995 9.69888C23.2966 9.72436 23.2772 9.75127 23.2464 9.77209C23.2135 9.79508 23.1851 9.80208 23.1718 9.78227C22.8571 9.37136 21.0593 7.77259 21.7253 7.28967Z" fill="#3A3B7B"/>
<path d="M6.51679 17.51C6.68892 17.387 6.87605 17.2847 7.07408 17.2052C7.28126 17.1483 7.50208 17.1578 7.70319 17.2321C7.90425 17.3064 8.07469 17.4415 8.18864 17.617C8.29057 17.7921 8.33043 17.9942 8.3023 18.193C8.27416 18.3917 8.17952 18.5762 8.03259 18.7189C7.91869 18.8345 7.78937 18.9352 7.64809 19.0184C7.01837 19.4089 6.38303 19.7779 5.74774 20.1684C5.61774 20.2661 5.47984 20.3538 5.33534 20.4305C5.11556 20.5357 4.86438 20.5638 4.62523 20.5101C4.3861 20.4564 4.17403 20.3242 4.02572 20.1363C3.91485 20.0032 3.82128 19.8578 3.74708 19.703C3.14521 18.4889 2.52105 17.2801 1.94147 16.0445C1.67398 15.5097 1.45664 14.8945 1.24487 14.3008C1.15325 14.1283 1.13536 13.9284 1.195 13.7434C1.25465 13.5584 1.38713 13.4031 1.56426 13.3104C1.7414 13.2177 1.94921 13.1951 2.1435 13.2472C2.33779 13.2993 2.50323 13.4221 2.60464 13.5895C2.91635 13.987 3.19227 14.4093 3.42943 14.8518C4.03129 15.9215 4.6053 16.9912 5.18488 18.0289C5.21862 18.0862 5.25584 18.1415 5.29633 18.1947C5.73256 18.0186 6.14286 17.7885 6.51679 17.51Z" fill="#3A3B7B"/>
<path d="M12.7397 17.1368C11.3633 18.6826 9.0561 18.2921 7.89695 16.3024C7.07215 14.8904 6.92727 12.5583 8.72175 11.0875C9.10494 10.7795 9.56314 10.5697 10.0536 10.4777C10.655 10.3949 11.2683 10.4968 11.8058 10.7686C12.3432 11.0405 12.7774 11.4685 13.0463 11.9914C14.0271 13.703 13.8878 15.8852 12.7397 17.1368ZM12.1825 13.5318C12.0362 13.1112 11.7429 12.7521 11.3521 12.5155C11.131 12.3643 10.8623 12.2907 10.5913 12.3073C10.3203 12.3239 10.0635 12.4295 9.86416 12.6065C9.06727 13.2858 8.90005 14.8957 9.47962 15.8532C9.55351 16.0093 9.66198 16.148 9.79757 16.2597C9.93315 16.3713 10.0925 16.4532 10.2645 16.4996C10.4365 16.5459 10.6169 16.5557 10.7933 16.5281C10.9696 16.5005 11.1375 16.4363 11.2853 16.3399C11.7173 16.0184 12.0342 15.5758 12.1919 15.0735C12.3498 14.5712 12.3406 14.0342 12.1658 13.5372L12.1825 13.5318Z" fill="#3A3B7B"/>
<path d="M18.3571 14.2059C18.2162 14.235 18.0707 14.2367 17.929 14.211C17.7874 14.1853 17.6525 14.1327 17.5324 14.0562C17.4273 13.9985 17.3368 13.9191 17.2674 13.8239C17.1981 13.7286 17.1517 13.6197 17.1314 13.5051C17.1112 13.3906 17.1177 13.2731 17.1503 13.1612C17.183 13.0494 17.2412 12.9458 17.3206 12.858C17.459 12.6817 17.6554 12.5554 17.8779 12.4997C18.459 12.3378 19.0572 12.2392 19.6612 12.2055C19.794 12.1907 19.9284 12.2015 20.0567 12.2372C20.185 12.273 20.3046 12.333 20.4084 12.4137C20.5122 12.4944 20.5982 12.5942 20.6613 12.7073C20.7244 12.8203 20.7633 12.9443 20.7758 13.072C20.9499 13.6992 20.969 14.3567 20.8315 14.9922C20.33 17.0461 18.6024 17.7521 16.663 17.0942C16.1186 16.9183 15.6413 16.5906 15.2921 16.1529C14.8263 15.6257 14.4961 15.001 14.328 14.329C14.1918 13.7305 14.2067 13.1095 14.3715 12.5177C14.5363 11.926 14.8462 11.3806 15.2754 10.9272C15.6826 10.4344 16.2112 10.0465 16.8135 9.7986C17.1941 9.59727 17.6394 9.54003 18.0618 9.63814C18.1576 9.6636 18.2446 9.71319 18.3137 9.78178C18.3828 9.85038 18.4316 9.93547 18.4549 10.0282C18.4782 10.121 18.4752 10.2181 18.4463 10.3094C18.4173 10.4006 18.3635 10.4828 18.2903 10.5474C18.1511 10.6683 17.9999 10.7758 17.8389 10.8683C17.3434 11.1712 16.9123 11.5614 16.5683 12.0183C16.3428 12.314 16.1875 12.6535 16.1133 13.013C16.0392 13.3724 16.048 13.7431 16.1392 14.099C16.2656 14.5842 16.546 15.0197 16.9416 15.3452C18.1677 16.415 19.7615 15.3826 19.4829 13.9224C19.0761 14.0187 18.7194 14.1204 18.3571 14.2059Z" fill="#3A3B7B"/>
<path d="M25.8472 17.2225C24.036 18.2923 21.9741 17.2225 21.5227 14.9761C21.1939 13.3715 21.818 11.1251 24.0026 10.2693C24.4674 10.0911 24.9715 10.0285 25.4683 10.0874C26.065 10.1923 26.6125 10.4742 27.0334 10.8936C27.4543 11.3129 27.7275 11.8485 27.8144 12.4248C28.1822 14.3343 27.3463 16.3721 25.8472 17.2225ZM26.477 13.6229C26.4764 13.1786 26.3126 12.7486 26.0144 12.4087C25.855 12.1985 25.6245 12.0479 25.3624 11.9825C25.1001 11.9172 24.8225 11.9412 24.5766 12.0504C23.5958 12.4569 22.9047 13.9331 23.1555 15.0189C23.1747 15.1893 23.2324 15.3536 23.3246 15.5004C23.4168 15.6472 23.5413 15.7728 23.6894 15.8686C23.8374 15.9644 24.0056 16.0279 24.1819 16.0549C24.3583 16.0818 24.5386 16.0714 24.7103 16.0245C25.2288 15.8506 25.6777 15.5258 25.9944 15.0952C26.3111 14.6647 26.4798 14.1499 26.477 13.6229Z" fill="#3A3B7B"/>
<path d="M29.646 17.672C29.6186 17.8677 29.5114 18.045 29.3479 18.1649C29.1843 18.2847 28.9778 18.3374 28.7738 18.3111C28.5699 18.2849 28.3851 18.1819 28.2603 18.0249C28.1353 17.868 28.0806 17.6698 28.1079 17.474C28.1352 17.2783 28.2425 17.101 28.406 16.9811C28.5696 16.8612 28.7761 16.8086 28.98 16.8349C29.184 16.8611 29.3687 16.964 29.4937 17.121C29.6185 17.278 29.6734 17.4762 29.646 17.672ZM29.1611 10.4565C29.2671 10.3012 29.4226 10.1829 29.6044 10.1192C29.7862 10.0556 29.9845 10.0501 30.1698 10.1035C30.3582 10.1488 30.5247 10.2547 30.6414 10.4037C30.758 10.5527 30.8178 10.7356 30.8107 10.9219C30.7862 11.2206 30.7396 11.5173 30.6714 11.8098C30.4875 12.7993 30.3092 13.7888 30.1141 14.7676C30.025 15.1581 29.9079 15.5325 29.7797 15.9282C29.7352 16.052 29.6607 16.1638 29.5624 16.2545C29.5013 16.3228 29.4233 16.3751 29.3356 16.4067C29.2478 16.4384 29.1531 16.4483 29.0604 16.4355C28.9676 16.4227 28.8796 16.3876 28.8047 16.3336C28.7298 16.2795 28.6703 16.2081 28.6318 16.1262C28.5655 15.9791 28.5295 15.821 28.5259 15.6608C28.5259 14.9976 28.5259 14.329 28.5704 13.6604C28.6462 12.7062 28.7952 11.7587 29.0163 10.8256C29.0423 10.7006 29.0913 10.581 29.1611 10.4726V10.4565Z" fill="#3A3B7B"/>
<path fill-rule="evenodd" clip-rule="evenodd" d="M4.16228 21.9699C4.09648 22.1109 4.07844 22.2681 4.11059 22.4193C4.13198 22.6187 4.17897 22.8148 4.25047 23.0032C4.33975 23.2339 4.43965 23.462 4.56282 23.7431C4.59115 23.8078 4.62075 23.8753 4.65173 23.9464C4.81784 24.3273 5.02626 24.814 5.30427 25.5185C5.38296 25.7186 5.45284 25.9203 5.5232 26.1235C5.55163 26.2056 5.58016 26.2879 5.60936 26.3704C5.71403 26.6639 5.89413 26.9275 6.13286 27.1364C6.23423 27.2512 6.36869 27.3349 6.51946 27.3768C6.67317 27.4194 6.83666 27.4167 6.98873 27.369C7.14081 27.3213 7.27439 27.2307 7.37211 27.1091C7.46792 26.9898 7.52489 26.8462 7.53597 26.696C7.59813 26.4036 7.57691 26.1004 7.47446 25.8185C7.31187 25.3504 7.12665 24.8816 6.91307 24.4231L6.91209 24.4211C6.56073 23.7038 6.20357 22.9914 5.82951 22.2787L5.82671 22.2737C5.71721 22.0881 5.5749 21.9221 5.40618 21.7833C5.29665 21.6594 5.14557 21.5758 4.97872 21.547C4.80832 21.5175 4.63257 21.5472 4.48286 21.6306C4.34123 21.7083 4.22896 21.827 4.16228 21.9699Z" fill="#3A3B7B"/>
<path fill-rule="evenodd" clip-rule="evenodd" d="M9.52883 20.2034C8.97791 20.0665 8.40254 20.0465 7.84283 20.145C7.4093 20.186 6.98293 20.2819 6.68686 20.4721C6.53627 20.5688 6.41452 20.693 6.3468 20.851C6.27871 21.0097 6.27002 21.1913 6.32582 21.3936C6.4277 21.7642 6.56001 22.1246 6.69186 22.4837L6.71321 22.5419L6.71373 22.5432C7.11071 23.5866 7.51147 24.6265 7.91587 25.6628C7.96303 25.8262 8.02972 25.9837 8.1146 26.1323L8.11619 26.1351C8.22831 26.3197 8.37211 26.4848 8.54153 26.6235C8.62626 26.6997 8.73105 26.7525 8.84466 26.7761C8.9594 26.7998 9.07872 26.7929 9.18962 26.7561C9.30057 26.7192 9.39881 26.6538 9.47368 26.567C9.54734 26.4817 9.59557 26.3788 9.61328 26.2693C9.68638 25.972 9.66296 25.6602 9.54612 25.376C9.50967 25.2803 9.48107 25.1826 9.45092 25.0796C9.44087 25.0453 9.43069 25.0104 9.41994 24.9749C10.3456 24.6276 11.3306 24.1606 11.677 23.0742C11.8126 22.6988 11.8239 22.2923 11.7093 21.9104C11.5946 21.5281 11.3593 21.1893 11.0358 20.9405C10.5955 20.5923 10.0812 20.3407 9.52883 20.2034ZM8.00173 21.5359C8.01996 21.5309 8.03832 21.5262 8.05674 21.5219C8.6594 21.4309 9.27599 21.5521 9.79298 21.863C10.0208 22.015 10.1142 22.184 10.1302 22.3466C10.1467 22.514 10.0833 22.6954 9.95591 22.8698C9.71517 23.1992 9.27585 23.4628 8.87901 23.512C8.58972 22.8725 8.29593 22.2072 8.00173 21.5359Z" fill="#3A3B7B"/>
<path d="M13.2018 19.0331C13.8578 18.7423 14.6705 18.692 15.3065 18.8965C15.4666 18.9413 15.6056 19.0381 15.6996 19.1705C15.793 19.302 15.836 19.4605 15.8217 19.619C15.8207 19.7218 15.7944 19.823 15.7449 19.9143C15.6945 20.0073 15.6216 20.0872 15.5322 20.1474C15.4429 20.2075 15.3397 20.2462 15.2315 20.26C15.1233 20.2739 15.0132 20.2625 14.9105 20.2269L14.9027 20.2241L14.8954 20.2204C14.8429 20.194 14.7871 20.1742 14.7293 20.1612L14.7257 20.1605C14.2783 20.0464 13.8564 20.2354 13.7022 20.4676C13.6287 20.5783 13.6196 20.69 13.6808 20.7917C13.7464 20.9006 13.9072 21.0227 14.2326 21.1098C14.3221 21.1334 14.4139 21.1561 14.5069 21.1793C14.7642 21.2432 15.0317 21.3096 15.2903 21.4017L15.2912 21.4021C16.4842 21.8377 16.9285 22.74 16.7764 23.5886C16.6259 24.4279 15.8957 25.1916 14.7975 25.3718C14.3979 25.4568 13.9821 25.4403 13.5911 25.3238C13.1992 25.2069 12.8459 24.9937 12.5664 24.7053L12.5591 24.6977C12.4709 24.589 12.4115 24.4614 12.3852 24.3259C12.361 24.2036 12.3737 24.0773 12.4219 23.9617C12.4697 23.8468 12.5507 23.7474 12.6551 23.675C12.7655 23.5929 12.8985 23.5436 13.0377 23.5333C13.1765 23.5231 13.3153 23.552 13.4372 23.6165C13.5589 23.673 13.6721 23.745 13.7737 23.8306L13.7756 23.8321C13.9553 23.9899 14.1728 24.031 14.3813 23.9929C14.5929 23.9543 14.7919 23.8341 14.9198 23.6747C15.047 23.5163 15.098 23.3281 15.0374 23.1454C14.9765 22.9614 14.7932 22.7552 14.3906 22.5829C14.2853 22.54 14.1762 22.5054 14.0627 22.4717C14.0321 22.4626 14.001 22.4536 13.9695 22.4444C13.8855 22.42 13.7991 22.3948 13.7145 22.367C13.6561 22.3479 13.5983 22.3299 13.541 22.3119C13.3844 22.263 13.2317 22.2153 13.0847 22.1513C12.7649 22.0468 12.4886 21.8461 12.297 21.5789C12.1045 21.3107 12.0077 20.99 12.0208 20.6647C12.0219 19.8718 12.5422 19.3255 13.2018 19.0331Z" fill="#3A3B7B"/>
<path d="M21.5195 18.9486C21.3923 18.8889 21.2516 18.8606 21.1102 18.8662C20.9687 18.8718 20.8309 18.911 20.7093 18.9805C20.5884 19.0495 20.4871 19.1462 20.4146 19.2618C20.3481 19.3592 20.3021 19.4681 20.2791 19.5825C20.2562 19.6968 20.2567 19.8142 20.2807 19.9282C20.3044 20.0748 20.3307 20.2172 20.3566 20.3578C20.3996 20.5903 20.4413 20.8176 20.4689 21.0494L20.4699 21.0553C20.5327 21.4188 20.5656 21.7864 20.5685 22.1548L20.5688 22.16C20.5902 22.5579 20.449 22.948 20.1754 23.2475L20.171 23.2529C20.082 23.3624 19.9629 23.446 19.8272 23.4943C19.6915 23.5426 19.5444 23.5537 19.4025 23.5263C19.2606 23.499 19.1294 23.4343 19.0236 23.3395C18.9177 23.2446 18.8414 23.1231 18.8033 22.9891C18.722 22.7066 18.675 22.4161 18.663 22.1233L18.8019 20.0008C18.8039 19.9731 18.8063 19.9447 18.8087 19.916C18.8139 19.8515 18.8194 19.7859 18.8216 19.7246C18.8249 19.6345 18.8221 19.5418 18.8002 19.4541C18.7778 19.3645 18.7352 19.2792 18.6597 19.2066C18.5849 19.1347 18.484 19.0816 18.357 19.0455C18.1273 18.9817 17.933 18.9837 17.7712 19.0497C17.6092 19.1156 17.4983 19.238 17.4198 19.3794C17.3418 19.5196 17.2918 19.6856 17.2539 19.8518C17.2259 19.9752 17.2033 20.1047 17.1818 20.228C17.1744 20.2705 17.1672 20.3122 17.1598 20.3527L17.1596 20.3539C17.0448 21.0299 17.0107 21.7163 17.0578 22.3998C17.0666 22.7692 17.1468 23.1338 17.2945 23.475C17.4611 23.9152 17.7629 24.2966 18.16 24.5689C18.558 24.8417 19.0329 24.9921 19.5218 25C20.0108 25.0079 20.4907 24.8731 20.898 24.6134C21.3047 24.3541 21.6199 23.9824 21.8019 23.5475C22.0565 22.9935 22.176 22.3911 22.1514 21.786C22.1364 21.3443 22.1114 20.8992 22.0865 20.4564C22.0742 20.2391 22.062 20.0224 22.0511 19.8069C22.0456 19.5909 21.9713 19.3816 21.8383 19.2073C21.756 19.097 21.6465 19.0081 21.5195 18.9486Z" fill="#3A3B7B"/>
<path d="M26.0222 22.2765C26.0093 22.2923 25.9957 22.3085 25.9814 22.3255C25.878 21.7526 25.7821 21.1798 25.686 20.6062C25.6516 20.4004 25.6169 20.1937 25.5821 19.9877L25.5782 19.9647L25.5655 19.9448C25.5415 19.9074 25.5391 19.8708 25.5391 19.7926V19.7835L25.5377 19.7746C25.5117 19.6132 25.4356 19.4629 25.3194 19.3435C25.2035 19.2245 25.0529 19.1416 24.8874 19.1057C24.722 19.0665 24.5483 19.0752 24.3881 19.1305C24.2282 19.1857 24.0889 19.2849 23.9875 19.4156C23.9032 19.5159 23.8341 19.6272 23.7823 19.7462C23.6647 20.0023 23.5462 20.2592 23.4273 20.5167L23.4252 20.5211C23.1284 21.164 22.8296 21.8112 22.5394 22.4635L22.5385 22.4656C22.3604 22.8885 22.2134 23.3342 22.0669 23.7785C22.0376 23.8671 22.0084 23.9558 21.9789 24.0442C21.926 24.1844 21.9028 24.3333 21.9108 24.4822C21.9011 24.6154 21.9344 24.7484 22.0061 24.863C22.0792 24.98 22.1887 25.0721 22.3191 25.1262C22.4574 25.1844 22.6119 25.1967 22.7583 25.1613C22.9044 25.126 23.0342 25.045 23.1271 24.9313C23.2458 24.7911 23.348 24.6382 23.4312 24.4763C23.677 23.9938 23.9119 23.5053 24.1457 23.019C24.2362 22.8309 24.3241 22.6625 24.4242 22.479C24.431 22.5016 24.438 22.5237 24.4453 22.5458C24.5501 22.9888 24.727 23.413 24.9696 23.8031C25.0155 23.8857 25.0794 23.9579 25.157 24.0148C25.2355 24.0723 25.3261 24.1127 25.4225 24.1332C25.5189 24.1537 25.6189 24.1538 25.7153 24.1335C25.8117 24.1132 25.9026 24.0728 25.9811 24.0155L26.1366 23.9038L27.3435 22.9281L27.2721 23.3646C27.1741 23.9647 27.0769 24.5597 26.9737 25.1549C26.9061 25.4187 26.9062 25.6942 26.9739 25.9579C27.0033 26.1063 27.0781 26.2429 27.1887 26.3504C27.3003 26.4587 27.4433 26.5323 27.599 26.5616C27.7547 26.591 27.916 26.5747 28.062 26.5149C28.2058 26.4561 28.3282 26.3576 28.4137 26.2322C28.6127 25.9952 28.7366 25.7083 28.7706 25.4057C28.8218 24.9783 28.8797 24.5451 28.9376 24.112C29.0043 23.6128 29.071 23.1137 29.1273 22.6243L29.1275 22.6228C29.1817 22.087 29.2079 21.549 29.2061 21.0106C29.218 20.8405 29.1738 20.671 29.0798 20.5262C28.9855 20.3809 28.8457 20.2679 28.6805 20.2032C28.5087 20.1283 28.3164 20.1082 28.1319 20.1461C27.9485 20.1837 27.7826 20.2765 27.6581 20.4109C27.4355 20.6085 27.2266 20.8199 27.0329 21.0438L27.0316 21.0454C26.8201 21.2983 26.6101 21.5562 26.4014 21.8124C26.2745 21.9681 26.148 22.1235 26.0222 22.2765Z" fill="#3A3B7B"/>
</g>
<defs>
<clipPath id="clip0_211_2056">
<rect width="32.7153" height="20.186" fill="white" transform="translate(1.1604 7.22095)"/>
</clipPath>
</defs>
</svg>
