<svg width="39" height="34" viewBox="0 0 39 34" fill="none" xmlns="http://www.w3.org/2000/svg">
<g clip-path="url(#clip0_211_2080)">
<path d="M38.8914 13.9517C38.8954 13.9227 38.8954 13.8934 38.8914 13.8643C38.8952 13.8407 38.8952 13.8166 38.8914 13.7929L38.6078 11.7515C38.5669 11.5073 38.4574 11.279 38.2918 11.0923L38.2432 11.0367L38.1541 10.9493L33.2443 6.8031L33.382 6.93814C33.2693 6.80597 33.1279 6.70025 32.9681 6.62877C32.8082 6.55729 32.634 6.52187 32.4584 6.52511H30.9676C30.7252 6.5204 30.4883 6.59596 30.2952 6.73957C30.0923 6.59683 29.8481 6.52165 29.5984 6.52511H28.1076C27.9121 6.522 27.7193 6.56957 27.5485 6.66302C27.3778 6.75647 27.2353 6.89248 27.1354 7.05728C26.9814 7.29266 26.9236 7.57625 26.9734 7.85157L27.1597 9.13832C27.0363 9.06971 26.8965 9.03411 26.7546 9.03507H19.5358C19.2768 9.03666 19.0237 9.11109 18.8066 9.24952C18.5966 9.37837 18.428 9.56288 18.3205 9.78169L17.7614 9.31306C17.5414 9.11348 17.251 9.0053 16.9512 9.01124H5.62469C5.36477 9.01588 5.11063 9.08707 4.88744 9.21775C4.58209 9.39296 4.35832 9.67785 4.26357 10.012L0.666301 21.8072C0.599088 22.0016 0.592476 22.2112 0.647312 22.4093C0.702149 22.6073 0.815951 22.7849 0.974179 22.9193C1.01541 22.9535 1.0587 22.9854 1.10381 23.0145C1.10381 23.0145 1.03088 22.9669 0.990375 22.9272L5.90018 27.0813C6.10788 27.2688 6.37943 27.3736 6.66172 27.3752H18.0774C18.3381 27.3686 18.5924 27.2946 18.8147 27.1607C18.9404 27.0934 19.0529 27.0046 19.1469 26.8986L19.1874 26.843L19.2522 26.7636L19.3008 26.6762L19.8356 27.129C20.0403 27.309 20.3059 27.408 20.5809 27.407H32.0209C32.2813 27.3985 32.5351 27.3247 32.7582 27.1925C32.881 27.1211 32.9929 27.0328 33.0904 26.9304L33.1308 26.8748L33.1957 26.7954C33.2301 26.7451 33.26 26.692 33.2848 26.6365C33.3112 26.5884 33.3329 26.5378 33.3496 26.4856L36.6309 15.7151V15.6197C36.6349 15.5828 36.6349 15.5455 36.6309 15.5085V15.4371C36.6348 15.4134 36.6348 15.3892 36.6309 15.3655C36.6345 15.3153 36.6345 15.2649 36.6309 15.2146H37.6842C37.7758 15.2229 37.868 15.2229 37.9596 15.2146H38.0325C38.0918 15.1973 38.1489 15.1733 38.2027 15.1431H38.2837L38.4295 15.032L38.4943 14.9843L38.6078 14.8413V14.7937L38.6888 14.6586C38.6843 14.6324 38.6843 14.6055 38.6888 14.5792C38.6845 14.5663 38.6845 14.5524 38.6888 14.5395C38.706 14.4929 38.7196 14.4451 38.7293 14.3965C38.7255 14.3808 38.7255 14.3645 38.7293 14.3488C38.7254 14.3252 38.7254 14.301 38.7293 14.2774C38.7293 14.2774 38.8914 13.9676 38.8914 13.9517Z" fill="black"/>
<path d="M17.2834 9.91676C17.3264 9.95489 17.3564 10.005 17.3695 10.0604C17.3825 10.1158 17.3779 10.1738 17.3563 10.2265L13.7672 22.0138C13.722 22.1425 13.6295 22.2501 13.5079 22.3156C13.4089 22.3805 13.2944 22.4188 13.1757 22.4268H1.76814C1.67072 22.4222 1.57843 22.3827 1.50888 22.3156C1.4675 22.2781 1.43847 22.2293 1.42548 22.1756C1.41249 22.1219 1.41615 22.0655 1.43596 22.0138L5.03323 10.2265C5.07468 10.0962 5.16424 9.98575 5.28439 9.91676C5.38498 9.85653 5.49896 9.82109 5.61657 9.8135H17.0241C17.1208 9.81441 17.2134 9.85133 17.2834 9.91676ZM11.3284 19.6389L13.4755 12.6014H7.46384L5.32489 19.6389H11.3284ZM28.1724 10.0359C28.2113 10.0802 28.26 10.1154 28.3147 10.1388C28.3694 10.1622 28.4287 10.1732 28.4884 10.1709H29.9711C30.0275 10.1715 30.0831 10.1579 30.1328 10.1315C30.1824 10.1051 30.2243 10.0667 30.2546 10.02C30.2809 9.98353 30.2996 9.94223 30.3093 9.89857C30.319 9.85491 30.3197 9.80978 30.3113 9.76585L30.0197 7.66892C29.9919 7.57187 29.942 7.48225 29.8739 7.4068C29.8349 7.36246 29.7863 7.32729 29.7316 7.30392C29.6769 7.28054 29.6175 7.26955 29.5579 7.27177H28.0752C28.0187 7.27124 27.9631 7.28481 27.9135 7.31121C27.8638 7.33762 27.8219 7.37598 27.7916 7.42269C27.7349 7.53389 27.7106 7.60537 27.7349 7.66892L28.0347 9.76585C28.0501 9.86795 28.0983 9.96256 28.1724 10.0359ZM32.8797 7.65303C32.8519 7.55598 32.802 7.46636 32.7338 7.39092C32.6965 7.34673 32.6493 7.31158 32.5959 7.28816C32.5426 7.26475 32.4844 7.2537 32.426 7.25589H30.9352C30.8797 7.25434 30.8247 7.26754 30.7762 7.29411C30.7277 7.32068 30.6875 7.35962 30.6597 7.4068C30.6058 7.47727 30.5825 7.56578 30.5949 7.65303L30.8947 9.74995C30.9135 9.85098 30.9612 9.94466 31.0324 10.02C31.072 10.0635 31.1208 10.0981 31.1753 10.1214C31.2299 10.1447 31.2889 10.1562 31.3484 10.155H32.8391C32.8946 10.1558 32.9491 10.1422 32.9974 10.1157C33.0458 10.0892 33.0862 10.0508 33.1146 10.0041C33.1428 9.9686 33.1625 9.92731 33.1723 9.88333C33.1822 9.83936 33.1818 9.79379 33.1713 9.74995L32.8797 7.65303ZM26.868 10.8302L26.7221 9.79761H19.5357C19.4229 9.80371 19.3137 9.83937 19.2197 9.90087C19.1601 9.93277 19.1081 9.97699 19.0676 10.0305C19.027 10.084 18.9988 10.1454 18.9848 10.2106L18.3853 12.1805C18.3613 12.2297 18.3531 12.2849 18.3618 12.3388C18.3705 12.3927 18.3956 12.4427 18.4339 12.4823C18.5022 12.5453 18.5913 12.582 18.685 12.5856H27.419L25.2719 19.623H16.5623C16.45 19.6255 16.3406 19.6585 16.2464 19.7183C16.1318 19.7896 16.0481 19.8999 16.0114 20.0281L15.4037 21.9979C15.3839 22.0485 15.3787 22.1034 15.3887 22.1566C15.3987 22.2099 15.4235 22.2594 15.4604 22.2997C15.5266 22.3669 15.6165 22.4067 15.7116 22.4109H27.1516C27.2699 22.4009 27.3839 22.3628 27.4837 22.2997C27.6034 22.2338 27.6931 22.126 27.7349 21.9979L31.0243 11.2273H27.3217C27.263 11.2285 27.2046 11.2178 27.1503 11.1959C27.0959 11.1741 27.0468 11.1415 27.0058 11.1002C26.9388 11.0282 26.8914 10.9408 26.868 10.8461V10.8302Z" fill="white"/>
</g>
<defs>
<clipPath id="clip0_211_2080">
<rect width="38.2838" height="20.8821" fill="white" transform="translate(0.610535 6.5249)"/>
</clipPath>
</defs>
</svg>
