<svg width="28" height="29" viewBox="0 0 28 29" fill="none" xmlns="http://www.w3.org/2000/svg">
<path fill-rule="evenodd" clip-rule="evenodd" d="M6.97504 0.749268C10.8193 0.749268 13.9357 3.86567 13.9357 7.70996V0.749268H20.8964C24.7407 0.749268 27.8571 3.86567 27.8571 7.70996C27.8571 11.5542 24.7407 14.6707 20.8964 14.6707C24.7407 14.6707 27.8571 17.7871 27.8571 21.6314C27.8571 23.5402 27.0887 25.2696 25.8444 26.5271L25.8184 26.5533L25.7953 26.5763C24.5375 27.8224 22.8069 28.592 20.8964 28.592C18.999 28.592 17.2789 27.8328 16.0232 26.6016C16.007 26.5856 15.9907 26.5695 15.9745 26.5533C15.9592 26.5381 15.944 26.5228 15.9289 26.5074C14.6961 25.2515 13.9357 23.5302 13.9357 21.6314C13.9357 25.4756 10.8193 28.592 6.97504 28.592C3.13075 28.592 0.0143433 25.4756 0.0143433 21.6314V14.6707H6.97504C3.13075 14.6707 0.0143433 11.5542 0.0143433 7.70996C0.0143433 3.86567 3.13075 0.749268 6.97504 0.749268ZM12.5436 7.70996C12.5436 10.7854 10.0505 13.2785 6.97504 13.2785V2.14141C10.0505 2.14141 12.5436 4.63453 12.5436 7.70996ZM26.465 21.6314C26.465 18.5559 23.9719 16.0628 20.8964 16.0628C17.821 16.0628 15.3279 18.5559 15.3279 21.6314H26.465ZM1.40648 16.0628V21.6314C1.40648 24.7068 3.89961 27.1999 6.97504 27.1999C10.0505 27.1999 12.5436 24.7068 12.5436 21.6314V16.0628H1.40648ZM15.3279 13.2785V2.14141H20.8964C23.9719 2.14141 26.465 4.63453 26.465 7.70996C26.465 10.7854 23.9719 13.2785 20.8964 13.2785H15.3279Z" fill="#263238"/>
</svg>
