<svg width="34" height="34" viewBox="0 0 34 34" fill="none" xmlns="http://www.w3.org/2000/svg">
<g clip-path="url(#clip0_211_2072)">
<path d="M30.0819 8.5043C30.0819 8.82866 30.3481 9.09161 30.6765 9.09161H31.271C31.5994 9.09161 31.8656 8.82866 31.8656 8.5043C31.8656 8.17994 31.5994 7.91699 31.271 7.91699H30.6765C30.3481 7.91699 30.0819 8.17994 30.0819 8.5043Z" fill="#212326"/>
<path d="M12.8397 26.7109H15.728L14.8871 25.8803C14.6641 25.66 14.3617 25.5362 14.0463 25.5362H12.8397C8.24257 25.5362 4.51587 21.855 4.51587 17.3139C4.51587 12.7729 8.24257 9.09161 12.8397 9.09161H22.3527C26.9498 9.09161 30.6765 12.7729 30.6765 17.3139C30.6765 21.855 26.9498 25.5362 22.3527 25.5362H18.794C18.321 25.5362 17.8673 25.3506 17.5328 25.0202L16.5477 24.0471C15.9902 23.4964 15.234 23.187 14.4456 23.187H12.8397C9.55602 23.187 6.89411 20.5576 6.89411 17.3139C6.89411 14.0703 9.55602 11.4408 12.8397 11.4408H22.3527C25.6363 11.4408 28.2982 14.0703 28.2982 17.3139C28.2982 20.5576 25.6363 23.187 22.3527 23.187H20.0677C19.5946 23.187 19.1409 23.0014 18.8064 22.671L17.8213 21.6979C17.2638 21.1472 16.5077 20.8378 15.7192 20.8378H12.8397C10.8695 20.8378 9.27235 19.2601 9.27235 17.3139C9.27235 15.3678 10.8695 13.7901 12.8397 13.7901H22.3527C24.3228 13.7901 25.92 15.3678 25.92 17.3139C25.92 19.2364 24.3615 20.7993 22.4246 20.8371L22.4242 20.8378H21.5541C21.081 20.8378 20.6273 20.6521 20.2928 20.3217L19.3077 19.3486C18.8503 18.8968 18.2591 18.6074 17.626 18.5181L17.5962 18.4885H12.8397C12.183 18.4885 11.6506 17.9626 11.6506 17.3139C11.6506 16.6652 12.183 16.1393 12.8397 16.1393H22.3527C23.0094 16.1393 23.5418 16.6652 23.5418 17.3139C23.5418 17.9626 23.0094 18.4885 22.3527 18.4885H19.9744L20.8153 19.3191C21.0382 19.5394 21.3407 19.6632 21.6561 19.6632H22.3527C23.6661 19.6632 24.7309 18.6114 24.7309 17.3139C24.7309 16.0165 23.6661 14.9647 22.3527 14.9647H12.8397C11.5262 14.9647 10.4615 16.0165 10.4615 17.3139C10.4615 18.6114 11.5262 19.6632 12.8397 19.6632H17.2056C17.6787 19.6632 18.1324 19.8488 18.4669 20.1792L19.452 21.1523C20.0095 21.703 20.7657 22.0124 21.5541 22.0124H22.6499V22.0034C25.1384 21.8518 27.1091 19.8102 27.1091 17.3139C27.1091 14.7191 24.9796 12.6155 22.3527 12.6155H12.8397C10.2128 12.6155 8.08323 14.7191 8.08323 17.3139C8.08323 19.9088 10.2128 22.0124 12.8397 22.0124H15.7192C16.1923 22.0124 16.646 22.198 16.9805 22.5284L17.9656 23.5015C18.5231 24.0522 19.2793 24.3616 20.0677 24.3616H22.3527C26.2931 24.3616 29.4874 21.2063 29.4874 17.3139C29.4874 13.4216 26.2931 10.2662 22.3527 10.2662H12.8397C8.89929 10.2662 5.70499 13.4216 5.70499 17.3139C5.70499 21.2063 8.89929 24.3616 12.8397 24.3616H14.4456C14.9187 24.3616 15.3723 24.5473 15.7069 24.8777L16.692 25.8508C17.2495 26.4015 18.0056 26.7109 18.794 26.7109H22.3527C27.6065 26.7109 31.8656 22.5037 31.8656 17.3139C31.8656 12.1241 27.6065 7.91699 22.3527 7.91699L12.8397 7.91699C7.58584 7.91699 3.32675 12.1241 3.32675 17.3139C3.32675 22.5037 7.58585 26.7109 12.8397 26.7109Z" fill="#212326"/>
</g>
<defs>
<clipPath id="clip0_211_2072">
<rect width="28.5388" height="18.7939" fill="white" transform="translate(3.32675 7.91699)"/>
</clipPath>
</defs>
</svg>
