<svg width="34" height="34" viewBox="0 0 34 34" fill="none" xmlns="http://www.w3.org/2000/svg">
<g clip-path="url(#clip0_211_2049)">
<path fill-rule="evenodd" clip-rule="evenodd" d="M10.0432 10.085L3.09242 16.9659C4.48271 18.3423 6.07089 19.5022 7.80247 20.4097C8.28109 21.6665 9.0313 22.8451 10.0531 23.8567C13.8974 27.6623 20.1303 27.6623 23.9745 23.8567C24.9963 22.8451 25.7466 21.6665 26.2252 20.4096C27.9567 19.5022 29.5449 18.3423 30.9352 16.9659L23.99 10.0906C23.9849 10.0855 23.9797 10.0803 23.9745 10.0752C20.1303 6.26954 13.8974 6.26954 10.0531 10.0752C10.0498 10.0785 10.0465 10.0817 10.0432 10.085ZM23.3094 21.6511C21.2838 22.3278 19.1575 22.6744 17.0138 22.6744C14.8701 22.6744 12.7438 22.3278 10.7183 21.6511C10.9377 21.9393 11.18 22.216 11.4453 22.4785C14.5207 25.523 19.5069 25.523 22.5824 22.4785C22.8476 22.216 23.0899 21.9393 23.3094 21.6511ZM11.588 11.3155C12.1103 11.6571 12.6656 11.9494 13.2467 12.1877C14.441 12.6774 15.7211 12.9294 17.0138 12.9294C18.3065 12.9294 19.5866 12.6774 20.7809 12.1877C21.362 11.9494 21.9173 11.6571 22.4397 11.3155C19.4026 8.45475 14.625 8.45476 11.588 11.3155Z" fill="#3B4158"/>
</g>
<defs>
<clipPath id="clip0_211_2049">
<rect width="27.8428" height="19.4899" fill="white" transform="translate(3.09242 7.22095)"/>
</clipPath>
</defs>
</svg>
