<svg width="39" height="34" viewBox="0 0 39 34" fill="none" xmlns="http://www.w3.org/2000/svg">
<g clip-path="url(#clip0_211_2052)">
<path d="M38.5789 13.9517C38.5829 13.9227 38.5829 13.8934 38.5789 13.8643C38.5827 13.8407 38.5827 13.8166 38.5789 13.7929L38.2953 11.7515C38.2544 11.5073 38.145 11.279 37.9793 11.0923L37.9307 11.0367L37.8416 10.9493L32.9318 6.8031L33.0695 6.93814C32.9569 6.80597 32.8154 6.70025 32.6556 6.62877C32.4958 6.55729 32.3216 6.52187 32.1459 6.52511H30.6552C30.4127 6.5204 30.1759 6.59596 29.9827 6.73957C29.7798 6.59683 29.5356 6.52165 29.2859 6.52511H27.7951C27.5996 6.522 27.4068 6.56957 27.236 6.66302C27.0653 6.75647 26.9228 6.89248 26.8229 7.05728C26.669 7.29266 26.6111 7.57625 26.6609 7.85157L26.8472 9.13832C26.7238 9.06971 26.584 9.03411 26.4421 9.03507H19.2233C18.9643 9.03666 18.7112 9.11109 18.4941 9.24952C18.2841 9.37837 18.1156 9.56288 18.008 9.78169L17.4489 9.31306C17.2289 9.11348 16.9385 9.0053 16.6388 9.01124H5.31221C5.05229 9.01588 4.79814 9.08707 4.57495 9.21775C4.26961 9.39296 4.04583 9.67785 3.95109 10.012L0.353817 21.8072C0.286603 22.0016 0.279991 22.2112 0.334828 22.4093C0.389664 22.6073 0.503466 22.7849 0.661695 22.9193C0.702924 22.9535 0.746215 22.9854 0.791329 23.0145C0.791329 23.0145 0.7184 22.9669 0.67789 22.9272L5.5877 27.0813C5.79539 27.2688 6.06694 27.3736 6.34923 27.3752H17.7649C18.0256 27.3686 18.28 27.2946 18.5022 27.1607C18.6279 27.0934 18.7404 27.0046 18.8344 26.8986L18.8749 26.843L18.9397 26.7636L18.9883 26.6762L19.5231 27.129C19.7278 27.309 19.9934 27.408 20.2684 27.407H31.7084C31.9688 27.3985 32.2227 27.3247 32.4457 27.1925C32.5685 27.1211 32.6804 27.0328 32.7779 26.9304L32.8183 26.8748L32.8832 26.7954C32.9176 26.7451 32.9475 26.692 32.9723 26.6365C32.9988 26.5884 33.0205 26.5378 33.0371 26.4856L36.3184 15.7151V15.6197C36.3224 15.5828 36.3224 15.5455 36.3184 15.5085V15.4371C36.3223 15.4134 36.3223 15.3892 36.3184 15.3655C36.3221 15.3153 36.3221 15.2649 36.3184 15.2146H37.3717C37.4633 15.2229 37.5555 15.2229 37.6471 15.2146H37.7201C37.7794 15.1973 37.8365 15.1733 37.8902 15.1431H37.9712L38.117 15.032L38.1819 14.9843L38.2953 14.8413V14.7937L38.3763 14.6586C38.3718 14.6324 38.3718 14.6055 38.3763 14.5792C38.372 14.5663 38.372 14.5524 38.3763 14.5395C38.3935 14.4929 38.4071 14.4451 38.4168 14.3965C38.413 14.3808 38.413 14.3645 38.4168 14.3488C38.4129 14.3252 38.4129 14.301 38.4168 14.2774C38.4168 14.2774 38.5789 13.9676 38.5789 13.9517Z" fill="black"/>
<path d="M16.9709 9.91676C17.0139 9.95489 17.044 10.005 17.057 10.0604C17.0701 10.1158 17.0655 10.1738 17.0439 10.2265L13.4547 22.0138C13.4095 22.1425 13.317 22.2501 13.1954 22.3156C13.0965 22.3805 12.982 22.4188 12.8632 22.4268H1.45569C1.35827 22.4222 1.26597 22.3827 1.19642 22.3156C1.15505 22.2781 1.12601 22.2293 1.11302 22.1756C1.10003 22.1219 1.10369 22.0655 1.12351 22.0138L4.72078 10.2265C4.76223 10.0962 4.85178 9.98575 4.97194 9.91676C5.07252 9.85653 5.18651 9.82109 5.30412 9.8135H16.7116C16.8083 9.81441 16.901 9.85133 16.9709 9.91676ZM11.016 19.6389L13.163 12.6014H7.15138L5.01244 19.6389H11.016ZM27.86 10.0359C27.8989 10.0802 27.9475 10.1154 28.0022 10.1388C28.057 10.1622 28.1163 10.1732 28.176 10.1709H29.6586C29.7151 10.1715 29.7707 10.1579 29.8204 10.1315C29.87 10.1051 29.9119 10.0667 29.9422 10.02C29.9685 9.98353 29.9871 9.94223 29.9968 9.89857C30.0066 9.85491 30.0072 9.80978 29.9988 9.76585L29.7072 7.66892C29.6794 7.57187 29.6296 7.48225 29.5614 7.4068C29.5224 7.36246 29.4738 7.32729 29.4191 7.30392C29.3644 7.28054 29.305 7.26955 29.2454 7.27177H27.7628C27.7063 7.27124 27.6506 7.28481 27.601 7.31121C27.5514 7.33762 27.5094 7.37598 27.4792 7.42269C27.4225 7.53389 27.3982 7.60537 27.4225 7.66892L27.7222 9.76585C27.7376 9.86795 27.7859 9.96256 27.86 10.0359ZM32.5672 7.65303C32.5394 7.55598 32.4895 7.46636 32.4214 7.39092C32.3841 7.34673 32.3369 7.31158 32.2835 7.28816C32.2301 7.26475 32.1719 7.2537 32.1135 7.25589H30.6227C30.5672 7.25434 30.5123 7.26754 30.4638 7.29411C30.4153 7.32068 30.375 7.35962 30.3473 7.4068C30.2934 7.47727 30.27 7.56578 30.2825 7.65303L30.5822 9.74995C30.601 9.85098 30.6488 9.94466 30.72 10.02C30.7596 10.0635 30.8083 10.0981 30.8629 10.1214C30.9174 10.1447 30.9764 10.1562 31.0359 10.155H32.5267C32.5821 10.1558 32.6367 10.1422 32.685 10.1157C32.7334 10.0892 32.7738 10.0508 32.8022 10.0041C32.8304 9.9686 32.85 9.92731 32.8599 9.88333C32.8697 9.83936 32.8693 9.79379 32.8589 9.74995L32.5672 7.65303ZM26.5555 10.8302L26.4097 9.79761H19.2233C19.1104 9.80371 19.0013 9.83937 18.9073 9.90087C18.8476 9.93277 18.7957 9.97699 18.7551 10.0305C18.7146 10.084 18.6864 10.1454 18.6724 10.2106L18.0728 12.1805C18.0489 12.2297 18.0407 12.2849 18.0494 12.3388C18.0581 12.3927 18.0832 12.4427 18.1214 12.4823C18.1897 12.5453 18.2789 12.582 18.3726 12.5856H27.1065L24.9595 19.623H16.2499C16.1376 19.6255 16.0282 19.6585 15.9339 19.7183C15.8193 19.7896 15.7356 19.8999 15.6989 20.0281L15.0913 21.9979C15.0715 22.0485 15.0662 22.1034 15.0762 22.1566C15.0863 22.2099 15.1111 22.2594 15.148 22.2997C15.2142 22.3669 15.304 22.4067 15.3992 22.4109H26.8391C26.9574 22.4009 27.0715 22.3628 27.1713 22.2997C27.2909 22.2338 27.3807 22.126 27.4225 21.9979L30.7118 11.2273H27.0093C26.9505 11.2285 26.8922 11.2178 26.8378 11.1959C26.7835 11.1741 26.7343 11.1415 26.6933 11.1002C26.6263 11.0282 26.5789 10.9408 26.5555 10.8461V10.8302Z" fill="white"/>
</g>
<defs>
<clipPath id="clip0_211_2052">
<rect width="38.2838" height="20.8821" fill="white" transform="translate(0.29805 6.5249)"/>
</clipPath>
</defs>
</svg>
