<svg width="37" height="34" viewBox="0 0 37 34" fill="none" xmlns="http://www.w3.org/2000/svg">
<g clip-path="url(#clip0_211_2076)">
<path d="M8.82019 10.0054C7.40666 10.0054 6.05104 10.5669 5.05153 11.5664L1.78955 14.8284C0.790035 15.8279 0.228516 17.1835 0.228516 18.597C0.228516 21.5406 2.61471 23.9268 5.55823 23.9268C6.97176 23.9268 8.32738 23.3652 9.32689 22.3657L11.5832 20.1094C11.5832 20.1093 11.5833 20.1094 11.5832 20.1094L18.1574 13.5352C18.6348 13.0578 19.2822 12.7896 19.9573 12.7896C21.0875 12.7896 22.0457 13.5263 22.378 14.5456L24.4528 12.4708C23.5062 10.9884 21.8466 10.0054 19.9573 10.0054C18.5438 10.0054 17.1882 10.5669 16.1886 11.5664L7.35812 20.3969C6.88076 20.8743 6.23332 21.1425 5.55823 21.1425C4.15242 21.1425 3.01279 20.0029 3.01279 18.597C3.01279 17.922 3.28097 17.2745 3.75833 16.7972L7.0203 13.5352C7.49766 13.0578 8.1451 12.7896 8.82019 12.7896C9.95047 12.7896 10.9086 13.5263 11.2408 14.5457L13.3157 12.4709C12.3692 10.9884 10.7095 10.0054 8.82019 10.0054Z" fill="#394149"/>
<path d="M18.4952 20.3969C18.0179 20.8743 17.3704 21.1425 16.6953 21.1425C15.5652 21.1425 14.6071 20.406 14.2748 19.3869L12.2001 21.4616C13.1466 22.9439 14.8062 23.9268 16.6953 23.9268C18.1089 23.9268 19.4645 23.3652 20.464 22.3657L29.2945 13.5352C29.7719 13.0578 30.4193 12.7896 31.0944 12.7896C32.5002 12.7896 33.6398 13.9293 33.6398 15.3351C33.6398 16.0102 33.3717 16.6576 32.8943 17.135L29.6323 20.3969C29.155 20.8743 28.5075 21.1425 27.8324 21.1425C26.7023 21.1425 25.7441 20.4059 25.4118 19.3866L23.3371 21.4614C24.2836 22.9438 25.9432 23.9268 27.8324 23.9268C29.246 23.9268 30.6016 23.3652 31.6011 22.3657L34.8631 19.1037C35.8626 18.1042 36.4241 16.7486 36.4241 15.3351C36.4241 12.3916 34.038 10.0054 31.0944 10.0054C29.6809 10.0054 28.3253 10.5669 27.3258 11.5664L18.4952 20.3969Z" fill="#394149"/>
</g>
<defs>
<clipPath id="clip0_211_2076">
<rect width="36.1956" height="13.9214" fill="white" transform="translate(0.228516 10.0054)"/>
</clipPath>
</defs>
</svg>
